<?xml version="1.0" standalone="no"?><!DOCTYPE svg PUBLIC "-//W3C//DTD SVG 1.1//EN" "http://www.w3.org/Graphics/SVG/1.1/DTD/svg11.dtd"><svg t="1575289580740" class="icon" viewBox="0 0 1024 1024" version="1.1" xmlns="http://www.w3.org/2000/svg" p-id="1116" xmlns:xlink="http://www.w3.org/1999/xlink" width="200" height="200"><defs><style type="text/css"></style></defs><path d="M896 213.333333h-153.002667l-115.498666-115.498666A42.496 42.496 0 0 0 597.333333 85.333333h-170.666666a42.538667 42.538667 0 0 0-30.165334 12.501334L350.165333 144.170667l60.330667 60.330666 33.834667-33.834666h135.338666l115.498667 115.498666A42.496 42.496 0 0 0 725.333333 298.666667h128v348.672l85.333334 85.333333V256a42.666667 42.666667 0 0 0-42.666667-42.666667zM128 853.333333h665.002667l72.832 72.832 60.330666-60.330666-768-768-60.330666 60.330666L153.002667 213.333333H128a42.666667 42.666667 0 0 0-42.666667 42.666667v554.666667a42.666667 42.666667 0 0 0 42.666667 42.666666z m302.208-362.752l102.656 102.656c-28.501333 6.528-60.544-0.213333-81.194667-20.864a84.48 84.48 0 0 1-24.32-60.330666c0-7.466667 1.152-14.549333 2.858667-21.461334zM365.568 425.898667A170.496 170.496 0 0 0 342.016 512c0 46.037333 17.536 88.874667 49.322667 120.661333A169.088 169.088 0 0 0 512 681.984a170.666667 170.666667 0 0 0 86.144-23.552L707.669333 768H170.666667V298.666667h67.669333l127.232 127.232z" fill="" p-id="1117"></path></svg>